<?xml version="1.0" encoding="UTF-8"?><svg id="Layer_2" xmlns="http://www.w3.org/2000/svg" viewBox="0 0 250.64 230.72"><g id="Layer_1-2"><path d="m35.23.38c2.28-.6,4.17-.7,5.56,1.35,3.57,5.3,8.24,9.47,13.51,12.99,3.97,2.65,7,6.43,10.94,9.12,1.49,1.02,1.3,2.19.23,3.68-5.65,7.82-11.59,15.54-14.93,24.69-1.61,4.41-2.53,9.13-2.32,13.98.21,4.67.32,9.36.18,14.03-.38,12.53,3.12,23.97,9.19,34.81,3.04,5.44,6.53,10.54,10.24,15.52,2.26,3.04,5.17,5.28,8.15,7.49.79.58,1.7.92,2.68,1.04,1.36.16,2.35-.38,3.03-1.54.68-1.15.39-2.14-.44-3.08-2.08-2.36-4.09-4.78-6.21-7.1-5.85-6.41-9.9-13.85-12.85-21.96-1.88-5.16-2.76-10.59-4.27-15.81-2.26-7.83-1.29-15.7-.83-23.4.34-5.7,1.73-11.69,4.59-17.03,1.3-2.42,3.14-4.29,5.14-6.03,1-.87,1.94-1.7,2.31-2.99,1.01-3.61,4.48-4.91,6.86-7.21.73-.7,1.58-1.27,2.16-2.16,2.85-4.36,7.42-6.56,11.62-9.24,10.55-6.73,21.99-10.71,34.45-12.46,7.51-1.06,15.04-1.79,22.57-2.35,6.25-.47,12.51.24,18.68,1.8,5.46,1.37,10.95,2.64,16.35,4.29,4.48,1.37,8.81,3.1,13.03,5.14,1.41.68,2.4,1.88,3.6,2.81,4.82,3.72,10.15,2.91,15.4,1.42,2.23-.63,4.45-1.4,6.68-2.1,2.58-.81,4.46.56,5.85,2.4,2.26,2.98,4.88,5.58,7.59,8.12,3.66,3.42,5.02,8.21,7.48,12.34,1.03,1.72,1.59,3.71,2.55,5.47,2.14,3.89,3.39,8.02,3.53,12.44.12,4.01,1.5,7.71,2.63,11.48.94,3.14.75,4.41-2,6.25-4.88,3.28-10.16,5.87-15.52,8.29-4.99,2.25-9.96,4.54-14.93,6.85-2.52,1.17-3.3.97-4.6-1.47-4.41-8.24-9.47-16.1-13.78-24.41-2.44-4.71-6.47-8.47-10.83-11.59-13.11-9.38-27.47-15.97-43.56-18.04-7.84-1.01-15.78-.48-23.68-.14-4.26.18-8.55.25-12.65,1.69-1.29.45-2.64.77-3.87,1.34-2.97,1.4-4.3,3.26-3.72,4.96,1.27,3.74,3.3,5.29,6.85,4.59,4.74-.93,9.43-2.12,14.1-3.36,2.12-.57,4.24-.95,6.42-1.06,9.72-.51,19.23,1,28.25,4.37,5.39,2.02,10.73,4.38,15.94,6.94,1.56.76,2.63,2.11,3.67,3.45,1.71,2.19,3.74,3.99,6.24,5.25,8.42,4.25,13.31,11.74,15.95,20.17,3.27,10.43,5.29,21.3,4.59,32.4-.8,12.52-2.97,24.65-8.18,36.28-5.88,13.13-12.63,25.65-22.67,36.02-7.73,7.99-15.89,15.57-25.64,21.21-3.61,2.09-5.93,5.17-5.6,9.65.11,1.53-.54,2.59-1.75,3.47-1.4,1.02-2.93,1.67-4.6,2.04-1.26.28-2.66.29-3.74.89-7.22,4.02-14.8,1.72-22.24,1.34-2.27-.12-4.73.04-6.68-1.68-.25-.22-.78-.23-1.15-.17-8.21,1.24-15.51-1.58-22.66-5.05-2.14-1.04-2.78-2.58-2.05-4.95,1.85-5.99,1.84-12.26,2.51-18.42.63-5.77,2.2-11.4,2.5-17.21.08-1.6,1.24-1.65,2.44-1.59,3.94.19,7.87.59,11.81.82,15.93.93,30.07-4.3,43.51-12.14,8.03-4.69,14.42-11.17,20.43-18.22,7.11-8.34,12.46-17.58,16.43-27.71,1.21-3.08,2.31-6.21,2.18-9.6-.07-1.93-.41-3.77-2.77-4.22-1.89-.36-3.89.85-4.74,2.96-1.13,2.84-2.37,5.67-3.23,8.59-5.17,17.45-16.34,30.26-30.99,40.42-7.09,4.92-14.85,8.61-23.01,11.06-8.16,2.45-16.57,2.73-25.06.55-14.12-3.62-26.6-10.56-37.78-19.47-11.52-9.18-20.98-20.38-27.9-33.65-6.07-11.64-9.82-23.98-12.16-36.76-1.06-5.74-1.88-11.62-1.81-17.53.02-1.82-.46-3.53-1.51-5.02-1.11-1.58-2.13-3.28-3.51-4.61-4.11-3.96-3.86-8.65-2.3-13.42,2.15-6.58,6.26-12.15,9.86-17.97,3.53-5.72,8.16-10.59,12.35-15.8,2.18-2.7,5.39-4.33,8.17-6.38,1.76-1.3,3.2.42,4.29,1.64,1.18,1.32,2.23,2.78,3.62,3.89.82.65,1.89,2.11,2.81,1.14,1.17-1.23-.53-2.09-1.32-2.84-1.91-1.82-4.08-3.39-5.59-6.02Z"/><path d="m124.6,76.4c3.03-.45,6.31,1.02,9.64,2.23,1.01.37,1.97.96,2.5,1.84,3.02,5,6.27,9.74,7.48,15.79,1.63,8.16-3.99,20.43-12.88,25.07-9.86,5.14-23.08,3.52-29.65-3.59-7.09-7.65-9.91-19.6-2.96-29.04,5.44-7.39,15.92-12.5,25.87-12.32Z" style="fill:#fff;"/><path d="m133.27,21.5c2.79.32,5.35.61,7.9.91.96.11,1.84.53,1.68,1.63-.17,1.17-1.16,1.15-2.09.95-1.33-.28-2.64-.83-4-.14-1.18.6-2.34,1.3-2.43,2.75-.13,2.04-1.56,2.26-3.04,2.31-3.92.13-7.85.17-11.78.23-1.4.02-2.67.53-3.95,1.02-2.46.94-4.88.78-7.25-.36-.8-.38-1.2-.86-.48-1.64,2.47-2.67,4.94-5.32,8.91-5.68,1.52-.14,2.83-.05,3.98,1.15,1.65,1.72,3.93,2.09,6.11,2.62.55.13,1.17.16,1.54-.38.48-.7-.04-1.18-.44-1.69-1.77-2.27-1.66-2.58,1.27-3.12,1.42-.26,2.86-.39,4.07-.55Z" style="fill:#fff;"/><path d="m98.03,71.81c2.86.58,5.83,1.33,8.91,1.47,2.13.1,3.6-.17,3.55-2.9-.03-1.61,1.21-2.91,2.74-3.33,1.66-.46,2.12,1.04,2.6,2.26.54,1.38,1.7,1.64,2.97,1.55,2.61-.2,4.78,1.31,7.22,1.8.7.14,1.39.75,1.11,1.6-.33,1.01-1.14.59-1.82.37-10.73-3.34-22.11,2.5-28.46,9.6-.11.12-.17.28-.29.39-.68.6-.62,2.5-1.59,1.97-1.27-.69.07-1.96.41-2.94.78-2.29,2.22-4.03,4.29-5.36,1.02-.66,2.38-1.49,1.89-3.04-.43-1.37-1.9-1.28-3.06-1.51-.24-.05-.48-.03-.72-.06-.73-.11-1.62-.21-1.49-1.18.11-.81.96-.68,1.74-.69Z" style="fill:#fff;"/><path d="m127.08,139.67c.19-1.93,1.45-2.74,3.17-2.49,3.67.55,6.37-1.85,9.5-2.91.35-.12.78-.46.87-.78,1.04-3.56,4.04-5.73,6-8.63,1.02-1.51,2.54-2.46,3.59-3.88,1.39-1.9,2.53-3.92,2.89-6.3.09-.56.19-1.15.88-1.3.66-.14,1.03.33,1.42.74,1.78,1.86,1.72,2.96-.22,4.8-.34.33-.86.71-.88,1.1-.29,4.96-4.25,7.56-7.07,10.79-4.17,4.76-10.12,6.36-15.95,7.99-1.39.39-2.84.56-4.26.84l.05.03Z" style="fill:#fff;"/><path d="m127.02,139.63c-3.46,1.25-7.1,1.46-10.68,1.29-4.75-.23-9.36-1.42-13.64-3.61-.61-.31-1.55-.56-1.38-1.45.14-.76,1.05-.54,1.64-.71,2.08-.6,4.13-.41,6.18.18-1.04,2.21-.86,2.58,1.47,3.08.31.07.66.21.95.13,5.3-1.41,10.31,1.05,15.5,1.13,0,0-.05-.03-.05-.03Z" style="fill:#fff;"/><path d="m40.17,29.98c-.32,1.22-.19,2.71.02,4.24.18,1.32-.33,2.52-1.87,2.53-1.56.01-2.1-1.2-1.8-2.51.45-2.02.34-3.76-1.16-5.35-.63-.67-.67-1.7-.13-2.48.63-.92,1.57-.56,2.41-.28,1.71.56,2.72,1.65,2.53,3.86Z" style="fill:#fff;"/><path d="m95.84,130.85c.23-1.81,1.2-3.59,2-5.41.41-.94,1.55-1.34,2.49-1.04,1.21.38.57,1.45.44,2.28-.29,1.86-1.25,3.47-2.06,5.12-.37.75-.85,1.75-1.96,1.36-.89-.32-.84-1.27-.91-2.3Z" style="fill:#fff;"/><path d="m213.96,45.5c.1-1.28-.02-3.03,1.67-2.97,2.06.07,2.2,2,2.25,3.63.05,1.4-.37,2.78-2.03,2.66-1.99-.14-1.8-1.9-1.89-3.32Z" style="fill:#fff;"/><path d="m207.17,46.7c.37-1.36.67-2.76,1.16-4.08.28-.76,1.12-.89,1.86-.7.86.22.81.93.51,1.54-.55,1.14-.28,2.36-.5,3.53-.18.94-.28,2.13-1.51,2.09-1.39-.05-1.33-1.33-1.51-2.37Z" style="fill:#fff;"/><path d="m11.69,62.55c-.71-3.02-1.38-5.62-1.92-8.25-.18-.86,0-1.79.85-2.37.46-.31.94-.22,1.32.15.72.71.78,1.59.4,2.46-1.06,2.46.52,5.07-.66,8Z" style="fill:#fff;"/><path d="m96.79,157.16c1.3.03,1.59.9,1.7,1.79.15,1.18-.31,2.1-1.61,2.21-.9.07-1.61-.43-1.64-1.38-.04-1.2.47-2.15,1.55-2.62Z" style="fill:#fff;"/><path d="m88.12,91.1c-.93-.11-2.13.05-2.17-1.3-.03-.96.49-2.25,1.5-2.07,1.11.2,1.84,1.52,2.11,2.62.21.84-.86.63-1.44.75Z" style="fill:#fff;"/><path d="m19.75,22.88c.69.17,1.68.14,1.58,1.11-.09.85-1.08.89-1.76.95-.8.07-1.54-.41-1.51-1.21.04-1.04,1.02-.76,1.69-.85Z" style="fill:#fff;"/><path d="m152.73,84.85c-.63-.16-1.66.25-1.63-.85.03-.84.86-1.09,1.61-1.03.71.05,1.63.26,1.66,1.05.03,1.06-1.04.62-1.64.83Z" style="fill:#fff;"/><path d="m223.11,26.77c-.68-.15-1.3-.48-1.41-1.3-.05-.35.3-.55.64-.53.75.04,1.43.27,1.56,1.12.07.46-.26.7-.79.7Z" style="fill:#fff;"/><path d="m89.51,110.94c-.81-.18-.85-.75-.82-1.31.02-.49.15-1.02.74-1.03.7,0,.92.56.93,1.15.01.61-.31,1.03-.85,1.19Z" style="fill:#fff;"/><path d="m141.62,28.97c-.01.58-.35.9-.88.93-.6.04-1.13-.19-1.2-.88-.05-.48.34-.68.76-.74.59-.08,1.12-.01,1.32.68Z" style="fill:#fff;"/><path d="m128.99,150.49c-.14.64-.61.89-1.19.95-.41.04-.88-.07-.88-.55,0-.8.6-1.04,1.28-1.08.44-.02.73.21.8.68Z" style="fill:#fff;"/></g></svg>