<?xml version="1.0" encoding="UTF-8"?><svg id="Layer_2" xmlns="http://www.w3.org/2000/svg" viewBox="0 0 239.29 226.77"><g id="Layer_1-2"><path d="m33.63.37c2.18-.59,3.98-.69,5.3,1.33,3.41,5.21,7.86,9.31,12.9,12.77,3.79,2.61,6.68,6.32,10.45,8.97,1.42,1,1.24,2.15.22,3.62-5.4,7.69-11.06,15.28-14.26,24.27-1.54,4.34-2.42,8.98-2.22,13.74.2,4.59.31,9.2.17,13.79-.37,12.32,2.98,23.56,8.77,34.21,2.91,5.34,6.23,10.36,9.78,15.26,2.16,2.99,4.94,5.19,7.78,7.36.75.57,1.62.9,2.56,1.02,1.3.16,2.24-.38,2.89-1.52.65-1.13.37-2.1-.42-3.03-1.99-2.32-3.91-4.7-5.93-6.98-5.59-6.3-9.45-13.61-12.27-21.58-1.79-5.07-2.63-10.41-4.07-15.54-2.16-7.7-1.23-15.43-.79-23,.33-5.6,1.65-11.49,4.38-16.74,1.24-2.38,3-4.22,4.9-5.93.96-.86,1.86-1.67,2.2-2.94.97-3.55,4.27-4.83,6.54-7.09.7-.69,1.51-1.25,2.06-2.12,2.72-4.29,7.09-6.45,11.1-9.09,10.08-6.62,20.99-10.53,32.89-12.25,7.17-1.04,14.36-1.76,21.55-2.31,5.97-.46,11.94.24,17.83,1.77,5.22,1.35,10.46,2.59,15.6,4.22,4.27,1.35,8.41,3.05,12.44,5.05,1.35.67,2.29,1.85,3.44,2.77,4.6,3.66,9.69,2.86,14.7,1.39,2.13-.62,4.25-1.38,6.38-2.06,2.47-.79,4.25.55,5.59,2.36,2.16,2.93,4.66,5.49,7.25,7.98,3.49,3.36,4.79,8.07,7.15,12.13.98,1.69,1.52,3.65,2.44,5.38,2.04,3.82,3.24,7.88,3.37,12.23.12,3.95,1.43,7.58,2.51,11.29.9,3.08.71,4.33-1.91,6.14-4.66,3.22-9.7,5.77-14.82,8.15-4.77,2.21-9.51,4.46-14.25,6.73-2.41,1.15-3.15.95-4.39-1.44-4.21-8.1-9.05-15.82-13.16-23.99-2.33-4.63-6.18-8.32-10.34-11.39-12.51-9.22-26.22-15.7-41.59-17.73-7.48-.99-15.07-.47-22.61-.14-4.07.18-8.16.24-12.08,1.66-1.23.44-2.52.75-3.69,1.32-2.84,1.37-4.1,3.2-3.55,4.88,1.21,3.68,3.15,5.2,6.54,4.51,4.52-.91,9-2.08,13.46-3.31,2.03-.56,4.05-.93,6.13-1.05,9.28-.51,18.36.98,26.97,4.3,5.14,1.98,10.25,4.31,15.22,6.82,1.49.75,2.51,2.08,3.51,3.39,1.63,2.16,3.57,3.92,5.96,5.16,8.04,4.18,12.71,11.54,15.23,19.82,3.13,10.25,5.05,20.93,4.38,31.85-.76,12.31-2.84,24.23-7.81,35.66-5.62,12.91-12.06,25.21-21.65,35.41-7.38,7.85-15.17,15.3-24.47,20.84-3.45,2.05-5.66,5.08-5.34,9.48.11,1.5-.51,2.55-1.67,3.41-1.34,1-2.8,1.64-4.39,2.01-1.2.28-2.54.29-3.57.88-6.89,3.95-14.13,1.69-21.23,1.31-2.17-.11-4.52.04-6.37-1.65-.24-.21-.74-.23-1.1-.17-7.84,1.21-14.8-1.55-21.63-4.96-2.04-1.02-2.66-2.53-1.96-4.87,1.77-5.88,1.75-12.05,2.39-18.1.6-5.67,2.1-11.2,2.39-16.91.08-1.58,1.18-1.62,2.33-1.56,3.76.18,7.51.58,11.28.81,15.21.91,28.71-4.22,41.53-11.94,7.67-4.61,13.77-10.98,19.5-17.91,6.78-8.19,11.9-17.28,15.69-27.23,1.15-3.03,2.2-6.11,2.08-9.44-.07-1.9-.39-3.7-2.64-4.15-1.81-.36-3.72.83-4.52,2.91-1.08,2.79-2.26,5.57-3.09,8.45-4.94,17.15-15.6,29.74-29.59,39.73-6.77,4.83-14.17,8.46-21.97,10.88-7.79,2.41-15.82,2.68-23.93.54-13.48-3.56-25.39-10.38-36.06-19.13-11-9.02-20.03-20.03-26.64-33.07-5.8-11.44-9.37-23.57-11.61-36.13-1.01-5.65-1.79-11.42-1.73-17.23.02-1.79-.44-3.47-1.44-4.93-1.06-1.55-2.04-3.23-3.35-4.53-3.93-3.89-3.68-8.5-2.2-13.19,2.05-6.47,5.98-11.94,9.41-17.66,3.37-5.63,7.79-10.41,11.79-15.53,2.08-2.66,5.14-4.26,7.8-6.27,1.68-1.27,3.05.41,4.1,1.61,1.13,1.3,2.13,2.73,3.45,3.82.78.64,1.8,2.07,2.68,1.12,1.12-1.21-.5-2.05-1.26-2.79-1.83-1.79-3.9-3.34-5.34-5.91Z" style="fill:#fff;"/><path d="m118.95,75.09c2.89-.44,6.02,1,9.2,2.2.96.36,1.88.94,2.39,1.81,2.88,4.92,5.98,9.57,7.14,15.52,1.56,8.02-3.81,20.08-12.3,24.64-9.41,5.05-22.03,3.46-28.31-3.52-6.77-7.52-9.46-19.27-2.82-28.54,5.2-7.26,15.2-12.28,24.7-12.11Z"/><path d="m127.23,21.14c2.67.31,5.11.6,7.54.89.92.11,1.76.52,1.61,1.6-.16,1.15-1.11,1.13-2,.94-1.27-.28-2.52-.82-3.82-.14-1.12.59-2.23,1.28-2.32,2.71-.13,2-1.49,2.22-2.9,2.27-3.75.13-7.5.17-11.25.23-1.34.02-2.55.52-3.77,1-2.35.92-4.66.76-6.93-.35-.76-.38-1.15-.84-.46-1.62,2.36-2.63,4.71-5.23,8.51-5.58,1.45-.13,2.7-.04,3.8,1.13,1.57,1.69,3.75,2.05,5.84,2.58.53.13,1.11.16,1.47-.38.46-.69-.04-1.16-.42-1.66-1.69-2.23-1.58-2.53,1.21-3.06,1.36-.26,2.74-.39,3.89-.54Z"/><path d="m93.59,70.58c2.73.57,5.57,1.31,8.51,1.45,2.04.1,3.44-.17,3.39-2.85-.03-1.58,1.16-2.86,2.62-3.27,1.58-.45,2.02,1.02,2.48,2.22.52,1.36,1.63,1.62,2.84,1.52,2.49-.19,4.57,1.29,6.89,1.77.67.14,1.32.74,1.06,1.58-.31,1-1.09.57-1.74.37-10.24-3.28-21.11,2.46-27.17,9.44-.1.12-.16.28-.28.38-.65.59-.6,2.46-1.52,1.94-1.21-.68.07-1.93.39-2.89.75-2.25,2.12-3.97,4.09-5.27.98-.65,2.28-1.46,1.81-2.99-.41-1.35-1.81-1.25-2.92-1.48-.22-.05-.46-.03-.69-.06-.69-.11-1.55-.21-1.42-1.16.11-.8.91-.67,1.66-.68Z"/><path d="m121.32,137.28c.19-1.9,1.38-2.7,3.03-2.44,3.51.54,6.08-1.82,9.07-2.86.33-.12.74-.45.84-.77,1-3.5,3.86-5.63,5.73-8.48.97-1.48,2.43-2.41,3.43-3.82,1.33-1.87,2.41-3.86,2.76-6.19.08-.55.18-1.13.84-1.28.63-.14.98.33,1.35.73,1.7,1.83,1.64,2.91-.21,4.72-.33.32-.82.7-.84,1.08-.27,4.87-4.06,7.43-6.75,10.6-3.98,4.68-9.66,6.25-15.23,7.86-1.32.38-2.71.55-4.06.82l.05.03Z"/><path d="m121.27,137.25c-3.3,1.23-6.78,1.44-10.19,1.26-4.53-.23-8.94-1.39-13.02-3.55-.58-.31-1.48-.55-1.32-1.42.14-.75,1-.53,1.56-.7,1.99-.59,3.94-.4,5.9.18-.99,2.18-.82,2.54,1.41,3.02.3.07.63.21.91.13,5.06-1.39,9.84,1.03,14.8,1.11,0,0-.04-.03-.04-.03Z"/><path d="m38.35,29.46c-.31,1.2-.18,2.67.02,4.17.17,1.3-.32,2.48-1.78,2.49-1.49.01-2-1.18-1.72-2.47.43-1.98.32-3.7-1.11-5.26-.6-.65-.64-1.67-.13-2.44.6-.9,1.5-.55,2.3-.27,1.63.55,2.6,1.62,2.42,3.79Z"/><path d="m91.5,128.62c.22-1.78,1.15-3.53,1.9-5.32.39-.92,1.48-1.31,2.38-1.02,1.15.38.54,1.43.42,2.24-.28,1.83-1.19,3.41-1.97,5.03-.35.74-.81,1.72-1.87,1.33-.85-.31-.81-1.25-.86-2.26Z"/><path d="m204.27,44.72c.09-1.26-.02-2.97,1.59-2.92,1.96.07,2.1,1.97,2.15,3.57.04,1.38-.35,2.73-1.94,2.61-1.9-.14-1.72-1.86-1.8-3.26Z"/><path d="m197.78,45.91c.36-1.34.63-2.71,1.1-4.01.27-.75,1.07-.87,1.77-.68.82.22.77.91.49,1.51-.52,1.12-.27,2.32-.48,3.47-.17.93-.26,2.09-1.44,2.05-1.32-.04-1.27-1.31-1.45-2.33Z"/><path d="m11.16,61.48c-.68-2.97-1.32-5.52-1.83-8.1-.17-.85,0-1.76.81-2.33.44-.31.9-.22,1.26.15.69.7.74,1.57.38,2.42-1.01,2.41.5,4.98-.63,7.87Z"/><path d="m92.4,154.47c1.24.03,1.52.89,1.62,1.76.14,1.16-.29,2.07-1.54,2.17-.86.07-1.54-.43-1.57-1.36-.04-1.18.45-2.12,1.48-2.57Z"/><path d="m84.13,89.54c-.89-.11-2.03.05-2.07-1.28-.03-.94.47-2.21,1.43-2.03,1.06.2,1.76,1.49,2.01,2.57.2.83-.82.62-1.37.74Z"/><path d="m18.86,22.49c.66.17,1.6.14,1.51,1.09-.09.83-1.03.88-1.68.94-.76.07-1.47-.4-1.44-1.19.03-1.02.97-.75,1.61-.83Z"/><path d="m145.81,83.4c-.6-.16-1.59.25-1.55-.83.03-.83.82-1.07,1.54-1.02.68.05,1.56.26,1.58,1.03.03,1.04-1,.6-1.57.82Z"/><path d="m213,26.32c-.65-.15-1.24-.47-1.35-1.27-.04-.35.29-.54.61-.52.71.04,1.37.26,1.49,1.1.07.45-.25.69-.75.69Z"/><path d="m85.46,109.04c-.77-.18-.81-.73-.79-1.29.02-.48.15-1,.71-1.01.67,0,.88.55.89,1.13.01.6-.3,1.02-.81,1.17Z"/><path d="m135.2,28.47c-.01.57-.34.88-.84.91-.57.03-1.08-.19-1.15-.86-.05-.47.33-.67.73-.72.56-.08,1.07-.01,1.26.67Z"/><path d="m123.15,147.92c-.13.63-.58.87-1.14.93-.39.04-.84-.06-.84-.54,0-.78.57-1.02,1.22-1.06.42-.02.7.21.76.67Z"/></g></svg>